Coordinates
version=1
nRows=8
nColumns=42
inDegrees=yes

Units are S.I. units (second, meters, Newtons, ...)
If the header above contains a line with 'inDegrees', this indicates whether rotational values are in degrees (yes) or radians (no).

endheader
time	pelvis_tilt	pelvis_list	pelvis_rotation	pelvis_tx	pelvis_ty	pelvis_tz	hip_flexion_r	hip_adduction_r	hip_rotation_r	knee_angle_r	knee_adduction_r	knee_angle_r_beta	ankle_angle_r	subtalar_angle_r	mtp_angle_r	hip_flexion_l	hip_adduction_l	hip_rotation_l	knee_angle_l	knee_adduction_l	knee_angle_l_beta	ankle_angle_l	subtalar_angle_l	mtp_angle_l	lumbar_extension	lumbar_bending	lumbar_rotation	arm_flex_r	arm_add_r	arm_rot_r	elbow_flex_r	pro_sup_r	wrist_flex_r	wrist_dev_r	arm_flex_l	arm_add_l	arm_rot_l	elbow_flex_l	pro_sup_l	wrist_flex_l	wrist_dev_l
      2.43000000	     10.28398155	     -1.86506744	      1.24167416	      0.06392259	      0.90833380	      0.24818549	     -8.02302996	      0.77156369	    -14.27004642	     26.07456262	      8.36962097	      0.45508697	     25.56266564	     21.88757237	     -7.50888484	     22.31865039	     -2.41643176	    -16.14961494	     36.20802904	     -4.30258193	      0.63194932	     14.39787757	      6.44352132	     -7.50888484	    -24.96069741	      7.75978718	      0.35820817	     18.25407923	    -12.97567251	     -9.47215854	     34.77437662	     90.00000001	      0.00000000	      0.00000000	     -4.15184533	     -4.45900128	    -29.02370628	     37.88401819	     90.00000001	      0.00000000	      0.00000000
      2.44000000	     10.36354639	     -1.76777215	      1.37601602	      0.07094766	      0.90778590	      0.24753474	     -8.92625524	      0.56350967	    -14.24492427	     25.63990223	      8.70895860	      0.44750071	     25.86346079	     22.09399830	     -7.50861918	     22.42975470	     -2.08909037	    -16.86692672	     34.26316497	     -4.45959535	      0.59800504	     14.52566148	      8.22519575	     -7.50861918	    -25.05509064	      7.75345154	      0.19435955	     18.55012708	    -12.96723704	     -9.00446051	     35.10971256	     90.00000001	      0.00000000	      0.00000000	     -4.15989842	     -4.42587712	    -29.09608631	     37.52710918	     90.00000001	      0.00000000	      0.00000000
      2.45000000	     10.29145161	     -1.77416149	      1.51842345	      0.07792368	      0.90680124	      0.24690200	     -9.53967202	      0.55944621	    -14.09009330	     25.35427707	      8.89412418	      0.44251561	     26.13868639	     22.13812791	     -7.50843010	     22.78946862	     -1.86230838	    -17.40557887	     32.63356613	     -4.58116190	      0.56956318	     14.60017398	      9.65136382	     -7.50843010	    -24.96787043	      7.84776931	      0.06249007	     18.78878936	    -12.96675295	     -8.65028818	     35.46760015	     90.00000001	      0.00000000	      0.00000000	     -4.20766075	     -4.37957140	    -29.13402934	     37.21162032	     90.00000001	      0.00000000	      0.00000000
      2.46000000	     10.48096106	     -1.64182718	      1.53251619	      0.08528055	      0.90625025	      0.24625234	    -10.53310044	      0.29981078	    -13.81341027	     24.96623208	      9.24688450	      0.43574295	     26.21625582	     22.15959886	     -7.50806796	     22.79697420	     -1.60598277	    -18.93655535	     31.13843815	     -4.98339999	      0.54346827	     14.93078083	     12.61656396	     -7.50806796	    -25.17235808	      7.77264073	     -0.00575758	     18.94966386	    -13.02314023	     -7.99073021	     35.92661015	     90.00000001	      0.00000000	      0.00000000	     -4.26616459	     -4.30599169	    -29.30943768	     36.98249219	     90.00000001	      0.00000000	      0.00000000
      2.47000000	     10.36385654	     -1.70401439	      1.73727587	      0.09221932	      0.90495945	      0.24551179	    -11.00112414	      0.43589465	    -13.56411982	     24.80476097	      9.31549075	      0.43292475	     26.70542732	     21.95969607	     -7.50791460	     23.26499235	     -1.44043277	    -19.14418140	     30.05907930	     -4.90539355	      0.52462990	     14.86343755	     13.61437317	     -7.50791460	    -25.04386285	      7.94999711	     -0.14307234	     19.11913071	    -13.00348342	     -7.75947647	     36.27862773	     90.00000001	      0.00000000	      0.00000000	     -4.23056077	     -4.27974921	    -29.30475143	     36.52176257	     90.00000001	      0.00000000	      0.00000000
      2.48000000	     10.20876433	     -1.82268399	      1.89885608	      0.09924453	      0.90337988	      0.24477138	    -11.29725972	      0.56157793	    -13.45447021	     24.93951045	      9.37619187	      0.43527657	     26.71383739	     21.79848841	     -7.50784293	     23.90412247	     -1.49130684	    -19.45008778	     29.57212588	     -4.65822510	      0.51613096	     14.82409687	     13.72106365	     -7.50784293	    -24.87299204	      8.17796855	     -0.27962849	     19.31478788	    -12.95032223	     -7.68547663	     36.58441608	     90.00000001	      0.00000000	      0.00000000	     -4.38265248	     -4.19780172	    -29.26705837	     36.41600535	     90.00000001	      0.00000000	      0.00000000
      2.49000000	     10.49642894	     -1.70042017	      1.84489568	      0.10694388	      0.90284205	      0.24423448	    -12.47606010	      0.45174310	    -12.54535523	     24.30365552	      9.73092056	      0.42417881	     27.04933030	     20.98177192	     -7.50752127	     23.72198979	     -1.19698192	    -21.15024187	     28.57742563	     -5.29242235	      0.49877017	     15.08061216	     17.69608074	     -7.50752127	    -25.15681179	      8.05420930	     -0.23766557	     19.25416773	    -13.08941708	     -6.81690540	     37.21005343	     90.00000001	      0.00000000	      0.00000000	     -4.28404721	     -4.12643865	    -29.65765933	     35.82126168	     90.00000001	      0.00000000	      0.00000000
      2.50000000	     10.47175664	     -1.81970509	      1.93110788	      0.11434312	      0.90146308	      0.24363161	    -13.05846108	      0.68705765	    -11.95030724	     24.09969766	      9.79190686	      0.42061907	     27.31362476	     20.32678239	     -7.50718336	     24.11950838	     -1.20388182	    -21.81173185	     28.34940249	     -5.40868956	      0.49479041	     15.16557702	     19.14571693	     -7.50718336	    -25.10793150	      8.22886316	     -0.24012393	     19.26751089	    -13.11214280	     -6.54497304	     37.63039726	     90.00000001	      0.00000000	      0.00000000	     -4.28841442	     -4.06189589	    -29.75596666	     35.39470535	     90.00000001	      0.00000000	      0.00000000
